<?xml version="1.0" encoding="UTF-8"?>
<svg id="Layer_1" data-name="Layer 1" xmlns="http://www.w3.org/2000/svg" viewBox="0 0 210.44 210.44">
  <defs>
    <style>
      .cls-1 {
        fill: #f3f4f5;
      }
    </style>
  </defs>
  <path class="cls-1" d="M191.53,44v122.44c0,13.82-11.21,25.03-25.03,25.03h-45.87v-68.05h21.47l.87-1.11c.76-7.17,2.94-14.1,3.88-21.22.25-1.89,1.31-4.94-.12-6.08h-25.44c.33-6.17-.42-12.73-.02-18.85.33-5.18.28-9.43,5.52-11.66,1.11-.47,6.46-1.86,7.39-1.86h13.21l.81-.99-.48-22.13c-14.65-.81-38.65-3.2-49.23,9.24-4.66,5.5-7.05,14.4-7.59,21.48v25.43h-25.1v27.09h24.11l1.65,68.71h-47.62c-13.83,0-25.04-11.21-25.04-25.03V44c0-13.82,11.21-25.03,25.04-25.03h122.56c13.82,0,25.03,11.21,25.03,25.03Z"/>
</svg>