<?xml version="1.0" encoding="UTF-8"?> <svg xmlns="http://www.w3.org/2000/svg" viewBox="0 0 164.07 164.11"><defs><style>.cls-1,.cls-3{fill:#dc2b27;}.cls-2{fill:#f8d20d;}.cls-3{stroke:#dc2b27;stroke-miterlimit:10;stroke-width:0.71px;}.cls-4{fill:#fff;}</style></defs><g id="Layer_2" data-name="Layer 2"><g id="Layer_1-2" data-name="Layer 1"><path class="cls-1" d="M164.07,82.07A82,82,0,1,1,0,82.07Z"></path><path class="cls-2" d="M164.07,82.07H0a82,82,0,1,1,164.07,0Z"></path><path class="cls-3" d="M24.51,68.83c0,1.55-.88,1.92-2.57,1.92s-2.53-.37-2.53-1.92v-26c0-1.55.88-1.91,2.53-1.91s2.57.36,2.57,1.91Z"></path><path class="cls-3" d="M39.32,70.58Q28,70.58,28,63V42.83c0-1.55.88-1.91,2.53-1.91s2.57.36,2.57,1.91V63c0,1.75,1.92,3.18,6.4,3.18h18.8c1.23,0,1.46.73,1.46,2.15s-.23,2.24-1.46,2.24Z"></path><path class="cls-3" d="M103.27,42.58a3.61,3.61,0,0,1,3-1.42c1.88,0,2.83.94,2.83,2.77v24.9c0,1.55-.88,1.92-2.57,1.92S104,70.38,104,68.83V49.54L88.69,69.2a3.47,3.47,0,0,1-3,1.55,3.66,3.66,0,0,1-3.22-1.55L67.09,49.54V68.83c0,1.55-.88,1.92-2.57,1.92S62,70.38,62,68.83V43.93a2.48,2.48,0,0,1,2.8-2.77,3.7,3.7,0,0,1,3,1.42L85.47,65.17Z"></path><path class="cls-3" d="M133.41,42.38l16.73,25.31a1.88,1.88,0,0,1,.27.94c0,1.22-1.5,2.16-2.8,2.16a1.94,1.94,0,0,1-1.69-.82l-4.53-7H120.06l-4.26,7a1.85,1.85,0,0,1-1.64.82c-1.27,0-2.77-.94-2.77-2.2a1.93,1.93,0,0,1,.27-.9l15.73-25.31a3.9,3.9,0,0,1,6,0Zm-10.7,16.2h15.84l-8.13-12.66Z"></path><path class="cls-4" d="M40.5,93.88l14.33,21.69a1.61,1.61,0,0,1,.23.8c0,1-1.28,1.85-2.4,1.85a1.66,1.66,0,0,1-1.45-.7l-3.87-6H29.07l-3.65,6a1.58,1.58,0,0,1-1.41.7c-1.08,0-2.36-.81-2.36-1.89a1.57,1.57,0,0,1,.23-.76L35.35,93.88a2.78,2.78,0,0,1,2.59-1.22A2.79,2.79,0,0,1,40.5,93.88Zm-9.16,13.88H44.91l-7-10.85Z"></path><path class="cls-4" d="M65.45,118q-9.72,0-9.73-6.48V94.26c0-1.32.76-1.64,2.17-1.64s2.2.32,2.2,1.64v17.3c0,1.5,1.64,2.72,5.49,2.72h9.85c3.85,0,5.49-1.22,5.49-2.72V94.26c0-1.32.75-1.64,2.2-1.64s2.17.32,2.17,1.64v17.3q0,6.48-9.73,6.48Z"></path><path class="cls-4" d="M102.64,96.53v20c0,1.33-.75,1.64-2.2,1.64s-2.17-.31-2.17-1.64v-20H88.38c-1,0-1.28-.63-1.28-1.88s.23-1.89,1.28-1.89h24.18c1,0,1.28.63,1.28,1.89s-.23,1.88-1.28,1.88Z"></path><path class="cls-4" d="M124.56,118c-6.47,0-9.72-2.16-9.72-6.48V99.25c0-4.36,3.25-6.49,9.72-6.49h9.56c6.47,0,9.72,2.13,9.72,6.49v12.31c0,4.32-3.25,6.48-9.72,6.48Zm14.95-6.48V99.25c0-1.54-1.68-2.72-5.52-2.72h-9.3c-3.84,0-5.52,1.18-5.52,2.72v12.31c0,1.5,1.68,2.72,5.52,2.72H134C137.83,114.28,139.51,113.06,139.51,111.56Z"></path></g></g></svg> 