<?xml version="1.0" encoding="UTF-8"?>
<svg id="Layer_1" data-name="Layer 1" xmlns="http://www.w3.org/2000/svg" viewBox="0 0 210.44 210.44">
  <defs>
    <style>
      .cls-1 {
        fill: #f3f4f5;
      }
    </style>
  </defs>
  <path class="cls-1" d="M76.03,19.5c18.44-.66,38.88-.71,57.32-.13,33.94,1.08,54.61,13.19,57.22,49.29,1.44,19.81.99,44.2.38,64.25-1.04,34.11-12.93,54.97-49.29,57.6-19.81,1.44-44.2.99-64.25.38-19.1-.58-36.71-3.34-48.45-19.92-7.81-11.03-8.56-22.03-9.12-35.07-.9-21.03-1.54-46.35-.03-67.23,2.58-35.56,22.6-47.97,56.22-49.17ZM78.3,34.99c-13.45.45-26.7.88-35.8,12.17-6.96,8.64-6.78,19.35-7.19,29.83-.77,19.9-1.43,43.34-.01,63.1,2.11,29.39,17.4,34.52,44,35.32,19.05.57,42.02.97,60.84-.38,29.39-2.11,34.52-17.4,35.32-44,.57-19.05.97-42.02-.38-60.84-2.11-29.4-17.41-34.52-44-35.32-17.06-.51-35.72-.44-52.79.13Z"/>
  <path class="cls-1" d="M149.3,105.13c0,24.36-19.75,44.11-44.11,44.11s-44.11-19.75-44.11-44.11,19.75-44.11,44.11-44.11,44.11,19.75,44.11,44.11ZM133.74,105.13c0-15.76-12.78-28.54-28.54-28.54s-28.54,12.78-28.54,28.54,12.78,28.54,28.54,28.54,28.54-12.78,28.54-28.54Z"/>
  <circle class="cls-1" cx="150.98" cy="59.34" r="10.34"/>
</svg>