<?xml version="1.0" encoding="UTF-8"?>
<svg id="Layer_1" xmlns="http://www.w3.org/2000/svg" version="1.1" viewBox="0 0 297 170">
  <!-- Generator: Adobe Illustrator 30.0.0, SVG Export Plug-In . SVG Version: 2.1.1 Build 123)  -->
  <defs>
    <style>
      .st0 {
        fill: #fff;
      }
    </style>
  </defs>
  <path class="st0" d="M5.9,90.1v-11.5C15-7.8,143.9,1.7,139.8,87.7c-3.9,81.9-126.5,84.4-133.9,2.3ZM93.3,84.3c0-11.3-9.1-20.4-20.4-20.4s-20.4,9.1-20.4,20.4,9.1,20.4,20.4,20.4,20.4-9.1,20.4-20.4Z"/>
  <rect class="st0" x="154.1" y="3.1" width="38.2" height="162.6" rx="7.2" ry="7.2"/>
  <path class="st0" d="M289.8,46.7v22.2c0,.7-.3,1.3-.8,1.8l-12.1,11.9c-.9.9-1,2.4-.2,3.4,2.8,3.3,9.5,9.5,12.2,11.9s.9,1.2.9,1.9v22.1c0,1.4-1.1,2.5-2.5,2.5l-22.5-.2c-.7,0-1.3-.3-1.7-.7l-12-11.7c-1-1-2.6-1-3.5,0l-11.8,11.8c-.5.5-1.1.7-1.8.7h-22.7c-1.4,0-2.5-1.1-2.5-2.5v-21.8c0-.6.2-1.3.7-1.7l11.9-12.7c.9-1,.9-2.5,0-3.5l-11.8-12c-.5-.5-.7-1.1-.7-1.8v-21.8c0-1.4,1.1-2.5,2.5-2.5h22.7c.7,0,1.3.3,1.8.7l11.8,11.8c1,1,2.6,1,3.5,0l12-11.7c.5-.5,1.1-.7,1.7-.7l22.5-.2c1.4,0,2.5,1.1,2.5,2.5Z"/>
</svg>