<?xml version="1.0" encoding="UTF-8"?>
<svg id="Layer_1" data-name="Layer 1" xmlns="http://www.w3.org/2000/svg" viewBox="0 0 210.44 210.44">
  <defs>
    <style>
      .cls-1 {
        fill: #f3f4f5;
      }
    </style>
  </defs>
  <path class="cls-1" d="M19.39,191.31l11.82-43.42c-3.27-8.17-7.08-15.56-9.03-24.37C7.48,57.22,71.49,1.22,135.43,24.49c52.38,19.06,72.37,84.08,39.89,129.69-25.32,35.56-72.43,45.57-111.03,25.8l-44.91,11.33ZM155.61,54.11C103.7,2.69,16.35,54.79,37.9,125.95c2.15,7.1,5.83,12.98,8.99,19.5l-6.9,25.75,26.71-6.85c50.52,31.04,113.38-6.02,109.7-65.54-.99-16.04-9.45-33.46-20.8-44.7Z"/>
  <path class="cls-1" d="M75.71,62.41c2.67-.25,6.52.44,8.18,2.83,1.07,1.55,7.11,17.59,7.43,19.6.73,4.6-7.68,8.9-7.68,13.01s11.33,16.7,14.74,19.63c3.21,2.75,13.44,9.96,17.43,9.61,3.64-.32,8.78-10.71,11.77-10.89,1.27-.07,3.62,1.02,4.85,1.58,2,.91,16.59,8.67,16.9,9.59,1.35,3.96-1.72,11.79-4.82,14.64-13.14,12.1-32.99,3.57-46.09-4.46-15.58-9.55-39.06-37.18-37.32-56.38.67-7.4,6.49-17.99,14.61-18.76Z"/>
</svg>