<?xml version="1.0" encoding="UTF-8"?>
<svg id="Layer_1" data-name="Layer 1" xmlns="http://www.w3.org/2000/svg" viewBox="0 0 210.44 210.44">
  <defs>
    <style>
      .cls-1 {
        fill: #f3f4f5;
      }
    </style>
  </defs>
  <path class="cls-1" d="M123.8,81.77c.94,2.15,3.02,10.18-.96,9.61-2.99-.42-2.29-5.43-3.52-7.83-2.77-5.41-8.87-3.85-10.38-5.77-.97-1.24-.51-2.99.96-3.44,4.98-1.49,11.87,2.83,13.89,7.42Z"/>
  <path class="cls-1" d="M129.84,83.26c-2.3-7.07-8.87-12.82-15.99-14.68-2.11-.55-6.14-.57-7.53-1.62-1.57-1.19-1.5-3.36.37-3.92,4.84-1.45,15.06,3.03,18.95,6.12,5.87,4.66,11.7,16.08,10.25,23.61-.43,2.25-3.45,2.78-4.43.7-.83-1.8-.65-7.25-1.62-10.22Z"/>
  <path class="cls-1" d="M142.9,121.86c2.85,4.35-2.31,10.82-5.67,13.71-6.75,5.81-10.49,3.79-17.83.65-20.73-8.87-38.04-23.88-48.89-43.67-1.97-3.6-8.61-16.89-8.85-20.25-.4-5.64,8.04-14.22,13.29-15.15,1.19-.21,2.24-.25,3.4.12,2.67.86,12.2,14.35,13.31,17.36,3.11,8.43-7.16,8.51-6.93,14.96.19,5.37,7.79,15.83,11.88,19.37,3.06,2.65,11.47,7.71,15.46,7.63,5.13-.11,6.22-10.55,14.52-6.94,2.48,1.09,14.98,10.17,16.31,12.21Z"/>
  <path class="cls-1" d="M146.66,93.88c.1,2.34.43,5.66-2.94,5.14-2.63-.41-2.11-8.54-2.5-11-2.38-15.15-13.59-27.48-28.86-30.33-1.74-.32-14.72-.4-10.22-4.85,2.18-2.16,13.62.58,16.69,1.61,16.95,5.74,27.07,21.85,27.83,39.42Z"/>
  <path class="cls-1" d="M180.26,49.53c-17.68-30.37-54.37-31.64-86.05-30.17-25.96,1.21-48.1,5.23-62.92,28.56-11.78,18.54-11.16,60.99-5.54,81.86,4.25,15.79,20.67,31.62,36.37,35.99.66.77-.47,16.84.42,20.29,1.45,5.6,8.55,7.24,12.55,3.07l18.11-19.02c32.25.65,68.25,1.89,86.71-29.52,11.34-19.29,11.6-71.71.33-91.07ZM163.09,138.28c-16.35,19.32-40.92,16.02-63.94,17.32l-27.52,28.44c-.84.75-2.49.89-2.91-.38l-.35-30.87c-.52-1.04-5.15-2.23-6.66-3.02-6.16-3.24-13.28-9.35-17.19-15.1-8.86-13.03-8.45-43.11-6.48-58.48,4.15-32.47,23.64-39.93,53.62-41.62,15.06-.85,46.36-.79,59.31,6.56,18.5,10.5,21.67,26.93,22.61,46.8.73,15.41-.27,38.24-10.5,50.34Z"/>
  <path class="cls-1" d="M123.8,81.77c.94,2.15,3.02,10.18-.96,9.61-2.99-.42-2.29-5.43-3.52-7.83-2.77-5.41-8.87-3.85-10.38-5.77-.97-1.24-.51-2.99.96-3.44,4.98-1.49,11.87,2.83,13.89,7.42Z"/>
  <path class="cls-1" d="M129.84,83.26c-2.3-7.07-8.87-12.82-15.99-14.68-2.11-.55-6.14-.57-7.53-1.62-1.57-1.19-1.5-3.36.37-3.92,4.84-1.45,15.06,3.03,18.95,6.12,5.87,4.66,11.7,16.08,10.25,23.61-.43,2.25-3.45,2.78-4.43.7-.83-1.8-.65-7.25-1.62-10.22Z"/>
  <path class="cls-1" d="M142.9,121.86c2.85,4.35-2.31,10.82-5.67,13.71-6.75,5.81-10.49,3.79-17.83.65-20.73-8.87-38.04-23.88-48.89-43.67-1.97-3.6-8.61-16.89-8.85-20.25-.4-5.64,8.04-14.22,13.29-15.15,1.19-.21,2.24-.25,3.4.12,2.67.86,12.2,14.35,13.31,17.36,3.11,8.43-7.16,8.51-6.93,14.96.19,5.37,7.79,15.83,11.88,19.37,3.06,2.65,11.47,7.71,15.46,7.63,5.13-.11,6.22-10.55,14.52-6.94,2.48,1.09,14.98,10.17,16.31,12.21Z"/>
  <path class="cls-1" d="M143.72,99.02c-2.63-.41-2.11-8.54-2.5-11-2.38-15.15-13.59-27.48-28.86-30.33-1.74-.32-14.72-.4-10.22-4.85,2.18-2.16,13.62.58,16.69,1.61,16.95,5.74,27.07,21.85,27.83,39.42.1,2.34.43,5.66-2.94,5.14Z"/>
  <path class="cls-1" d="M137.23,135.57c-6.75,5.81-10.49,3.79-17.83.65-20.73-8.87-38.04-23.88-48.89-43.67-1.97-3.6-8.61-16.89-8.85-20.25-.4-5.64,8.04-14.22,13.29-15.15,1.19-.21,2.24-.25,3.4.12,2.67.86,12.2,14.35,13.31,17.36,3.11,8.43-7.16,8.51-6.93,14.96.19,5.37,7.79,15.83,11.88,19.37,3.06,2.65,11.47,7.71,15.46,7.63,5.13-.11,6.22-10.55,14.52-6.94,2.48,1.09,14.98,10.17,16.31,12.21,2.85,4.35-2.31,10.82-5.67,13.71Z"/>
  <path class="cls-1" d="M143.72,99.02c-2.63-.41-2.11-8.54-2.5-11-2.38-15.15-13.59-27.48-28.86-30.33-1.74-.32-14.72-.4-10.22-4.85,2.18-2.16,13.62.58,16.69,1.61,16.95,5.74,27.07,21.85,27.83,39.42.1,2.34.43,5.66-2.94,5.14Z"/>
  <path class="cls-1" d="M135.89,92.79c-.43,2.25-3.45,2.78-4.43.7-.83-1.8-.65-7.25-1.62-10.22-2.3-7.07-8.87-12.82-15.99-14.68-2.11-.55-6.14-.57-7.53-1.62-1.57-1.19-1.5-3.36.37-3.92,4.84-1.45,15.06,3.03,18.95,6.12,5.87,4.66,11.7,16.08,10.25,23.61Z"/>
  <path class="cls-1" d="M122.85,91.38c-2.99-.42-2.29-5.43-3.52-7.83-2.77-5.41-8.87-3.85-10.38-5.77-.97-1.24-.51-2.99.96-3.44,4.98-1.49,11.87,2.83,13.89,7.42.94,2.15,3.02,10.18-.96,9.61Z"/>
</svg>